<?xml version="1.0" encoding="UTF-8" standalone="no"?>
<!-- Created with Inkscape (http://www.inkscape.org/) -->

<svg
   width="257.37582mm"
   height="58.505295mm"
   viewBox="0 0 257.37582 58.505295"
   version="1.1"
   id="svg5"
   inkscape:version="1.1.1 (3bf5ae0d25, 2021-09-20)"
   sodipodi:docname="header.svg"
   xmlns:inkscape="http://www.inkscape.org/namespaces/inkscape"
   xmlns:sodipodi="http://sodipodi.sourceforge.net/DTD/sodipodi-0.dtd"
   xmlns="http://www.w3.org/2000/svg"
   xmlns:svg="http://www.w3.org/2000/svg">
  <sodipodi:namedview
     id="namedview7"
     pagecolor="#ffffff"
     bordercolor="#666666"
     borderopacity="1.0"
     inkscape:pageshadow="2"
     inkscape:pageopacity="0.0"
     inkscape:pagecheckerboard="0"
     inkscape:document-units="mm"
     showgrid="false"
     inkscape:zoom="0.38885732"
     inkscape:cx="159.44151"
     inkscape:cy="677.62644"
     inkscape:window-width="2560"
     inkscape:window-height="1377"
     inkscape:window-x="-8"
     inkscape:window-y="-8"
     inkscape:window-maximized="1"
     inkscape:current-layer="layer1"
     fit-margin-top="0"
     fit-margin-left="0"
     fit-margin-right="0"
     fit-margin-bottom="0" />
  <defs
     id="defs2">
    <rect
       x="176.15717"
       y="351.0285"
       width="185.15788"
       height="51.432747"
       id="rect1882" />
    <rect
       x="176.15717"
       y="351.0285"
       width="1126.3772"
       height="282.8801"
       id="rect1882-6" />
    <rect
       x="176.15717"
       y="351.0285"
       width="902.64471"
       height="118.29532"
       id="rect1882-69" />
  </defs>
  <g
     inkscape:label="Layer 1"
     inkscape:groupmode="layer"
     id="layer1"
     transform="translate(-148.69765,101.54756)">
    <g
       aria-label="THE"
       transform="matrix(0.26458333,0,0,0.26458333,208.43322,-195.95876)"
       id="text1880"
       style="font-size:40px;line-height:1.25;font-family:Miltown;-inkscape-font-specification:Miltown;letter-spacing:30px;word-spacing:0px;white-space:pre;shape-inside:url(#rect1882);fill:#00e400">
      <path
         d="m 174.19625,386.94975 h 12.48 q -0.44,0.68 -1.24,0.8 -0.8,0.16 -1.8,0.16 h -1 v 0.8 h 7.2 v -2.44 h 7.6 v -0.88 h -0.8 q -1.16,0 -1.92,-0.24 -0.72,-0.24 -1.16,-0.76 -0.44,-0.52 -0.6,-1.36 -0.16,-0.88 -0.16,-2.08 v -1.52 h 13.84 v -0.92 h -13.84 v -17.32 h 4.48 q 1.28,0 2.08,0.16 0.84,0.16 1.32,0.64 0.48,0.44 0.68,1.2 0.24,0.76 0.36,1.96 h 0.8 v -5.4 h -14.28 v 1.52 h -10.68 v 6.08 h 0.76 q 0.2,-1.32 0.36,-2.2 0.16,-0.92 0.56,-1.44 0.4,-0.56 1.12,-0.8 0.72,-0.24 2.04,-0.24 h 4.96 q 0,5.48 0,9.32 0,3.8 0,6.36 0,2.52 0,4 0,1.44 -0.04,2.24 0,0.76 -0.04,1.04 -0.04,0.28 -0.08,0.44 h -13 z"
         id="path832" />
      <path
         d="m 263.83621,378.54975 v -18.68 h -2.8 v 12.12 h -13.24 v -10.16 q 0,-1.2 0.16,-2 0.2,-0.8 0.64,-1.24 0.44,-0.48 1.2,-0.68 0.76,-0.2 1.92,-0.2 h 0.88 v -0.88 h -20.48 v 0.92 h 8.88 q 1.56,0.2 2.28,1.16 0.72,0.92 0.72,2.6 v 1 h -5.64 v 0.92 h 1.36 q 1.68,0 2.52,0.84 0.88,0.8 0.88,2.92 v 4.72 h 0.88 v 8.92 q 0,1.2 -0.2,2 -0.16,0.8 -0.6,1.28 -0.44,0.48 -1.2,0.68 -0.72,0.2 -1.84,0.2 h -0.76 v 0.96 h 12.36 v -0.96 h -0.04 q -1.16,0 -1.92,-0.2 -0.76,-0.2 -1.2,-0.68 -0.44,-0.48 -0.64,-1.28 -0.16,-0.8 -0.16,-2 v -6.4 l 13.24,-0.04 v 11.28 q 0,1.2 -0.2,2 -0.16,0.8 -0.64,1.28 -0.44,0.48 -1.2,0.68 -0.72,0.2 -1.84,0.2 h -0.92 l 0.04,0.8 h 7.6 v -11.04 h 12.88 v -1.04 z"
         id="path834" />
      <path
         d="m 299.47607,387.02975 h 15.96 v -0.56 h 5.44 v 1.44 h 10.44 v -2.08 h 12.48 v -0.92 h -12.48 v -0.04 h -12 q -0.76,0 -1.2,-0.08 -0.44,-0.12 -0.68,-0.4 -0.24,-0.28 -0.32,-0.76 -0.08,-0.52 -0.08,-1.36 v -7.28 h 5.32 v 1.16 h 6.28 v -4.4 h -0.88 q 0,1.08 -0.2,1.6 -0.2,0.48 -0.64,0.68 -0.44,0.16 -1.12,0.12 -0.64,-0.04 -1.6,-0.04 l -0.92,-0.04 v -1.24 h -6.24 v -11.24 h 5.6 v 1.28 h 2.68 q 0.88,0 1.6,0.16 0.72,0.16 1.32,0.6 0.6,0.44 1.08,1.24 0.52,0.8 0.96,2.08 h 0.84 v -6.24 h -4.92 v -2 h -26.44 v 0.92 h 8.56 v 0.04 q 1.2,0 2,0.28 0.8,0.28 1.24,0.88 0.48,0.56 0.64,1.48 0.2,0.92 0.2,2.24 v 17.4 q 0,1.28 -0.2,2.12 -0.16,0.8 -0.64,1.28 -0.48,0.44 -1.28,0.6 -0.76,0.16 -1.96,0.16 h -8.84 z"
         id="path836" />
    </g>
    <g
       aria-label="MATRIX"
       transform="matrix(0.26458333,0,0,0.26458333,102.59764,-185.63524)"
       id="text1880-6"
       style="font-size:120px;line-height:1.25;font-family:Miltown;-inkscape-font-specification:Miltown;letter-spacing:100px;word-spacing:0px;white-space:pre;shape-inside:url(#rect1882-6);fill:#00e400">
      <path
         d="m 176.39625,474.63065 v 2.04 h 25.44 v -39.48 h 3.12 v -45.6 h 0.24 l 34.2,67.44 31.92,-68.64 h 0.24 v 52.2 q 0,7.32 -2.4,10.8 -2.28,3.48 -9,3.48 h -2.4 v 2.04 h 23.4 v -65.16 h 26.88 v -2.88 h -26.88 v -12.72 h -11.04 l -26.88,54.96 -29.52,-54.96 h -8.52 v -8.28 h -30.96 v 2.64 h 1.92 q 6,0 10.44,0.96 4.44,0.96 6.12,4.68 h -12.84 v 3.12 h 1.92 q 3.6,0 5.88,0.6 2.28,0.6 3.48,2.04 1.32,1.44 1.8,3.72 0.48,2.28 0.48,5.52 v 67.08 q 0,3.24 -0.72,5.4 -0.6,2.28 -2.04,3.96 -1.44,1.68 -3.6,2.88 -2.16,1.2 -5.04,2.28 z"
         style="letter-spacing:80px"
         id="path839" />
      <path
         d="m 462.91606,421.83065 -19.32,-34.56 h -7.68 v 3.6 h -59.28 v 2.76 h 45.84 l -23.64,48.24 q -3.24,7.08 -6.6,10.56 -3.24,3.36 -7.44,3.48 v 3 h 18.84 v -2.16 q -2.52,0 -3.6,-0.12 -0.96,-0.24 -1.08,-0.72 -0.12,-0.6 0.36,-1.44 0.48,-0.96 0.96,-2.4 l 7.92,-16.08 h 37.2 q 1.92,4.32 3.12,7.32 1.2,2.88 1.8,4.8 0.72,1.8 0.84,2.88 0.24,0.96 0.24,1.56 0,2.16 -1.68,3.12 -1.68,0.96 -6.96,1.08 v 2.16 h 59.88 v -2.88 q -1.44,-0.12 -4.44,0 -2.88,0 -6.6,0.12 -3.6,0 -7.56,-0.12 -3.96,-0.12 -7.44,-0.48 -3.36,-0.48 -5.88,-1.2 -2.4,-0.84 -3.12,-2.16 l -14.88,-30.36 z m -19.68,10.56 h -32.88 l 15.6,-33 z"
         style="letter-spacing:80px"
         id="path841" />
      <path
         d="m 560.9159,458.79065 h 37.44 q -1.32,2.04 -3.72,2.4 -2.4,0.48 -5.4,0.48 h -3 v 2.4 h 21.6 v -7.32 h 22.8 v -2.64 h -2.4 q -3.48,0 -5.76,-0.72 -2.16,-0.72 -3.48,-2.28 -1.32,-1.56 -1.8,-4.08 -0.48,-2.64 -0.48,-6.24 v -4.56 h 41.52 v -2.76 h -41.52 v -51.96 h 13.44 q 3.84,0 6.24,0.48 2.52,0.48 3.96,1.92 1.44,1.32 2.04,3.6 0.72,2.28 1.08,5.88 h 2.4 v -16.2 h -42.84 v 4.56 h -32.04 v 18.24 h 2.28 q 0.6,-3.96 1.08,-6.6 0.48,-2.76 1.68,-4.32 1.2,-1.68 3.36,-2.4 2.16,-0.72 6.12,-0.72 h 14.88 q 0,16.44 0,27.96 0,11.4 0,19.08 0,7.56 0,12 0,4.32 -0.12,6.72 0,2.28 -0.12,3.12 -0.12,0.84 -0.24,1.32 h -39 z"
         style="letter-spacing:80px"
         id="path843" />
      <path
         d="m 724.91576,436.23065 h 31.08 v 22.68 h 19.68 v -2.52 q -4.2,0 -6.84,-0.24 -2.52,-0.24 -4.08,-1.32 -1.56,-1.08 -2.16,-3.24 -0.48,-2.16 -0.48,-6 v -22.68 h 7.92 l 30.36,36 h 32.88 v -2.88 h -10.2 q -5.04,-0.36 -8.04,-1.56 -3,-1.32 -5.4,-4.2 l -24.12,-29.4 q 1.56,-0.36 3.48,-0.6 2.04,-0.24 3.96,-0.6 2.04,-0.36 3.72,-0.84 1.8,-0.6 3,-1.44 v -33.12 q -1.08,-0.6 -1.92,-1.2 -0.84,-0.72 -1.8,-1.08 -0.84,-0.48 -2.04,-0.72 -1.08,-0.36 -3,-0.24 h -34.92 v 52.44 h -30.96 z m 37.2,-19.56 v -29.76 q 0.84,-0.36 2.4,-0.6 1.56,-0.36 3.36,-0.48 1.92,-0.24 3.84,-0.36 1.92,-0.12 3.48,-0.12 8.52,0 13.44,3.84 4.92,3.72 4.92,10.92 0,3.36 -1.2,6.36 -1.08,3 -3.48,5.28 -2.28,2.28 -5.76,3.6 -3.48,1.32 -8.16,1.32 z"
         style="letter-spacing:80px"
         id="path845" />
      <path
         d="m 955.99558,458.91065 v -2.76 h -2.52 q -3.36,0 -6.36,-0.24 -2.88,-0.24 -5.16,-1.2 -2.16,-1.08 -3.48,-3.12 -1.32,-2.16 -1.32,-5.76 v -55.56 q 0,-3.6 0.48,-6 0.6,-2.4 1.92,-3.84 1.32,-1.44 3.48,-2.04 2.16,-0.6 5.52,-0.6 h 1.44 v -1.92 h 17.28 v -2.88 h -30.48 v 2.28 h -29.16 v 2.4 h 3.12 q 3.48,0 5.64,0.6 2.28,0.6 3.6,2.04 1.32,1.32 1.8,3.72 0.48,2.4 0.48,6 v 53.64 q 0,2.88 -0.6,4.8 -0.6,1.92 -1.8,3.12 -1.08,1.08 -2.76,1.68 -1.68,0.6 -3.96,0.96 v 1.8 h -17.76 v 2.88 z"
         style="letter-spacing:80px"
         id="path847" />
      <path
         d="m 1034.4353,376.11065 h 20.52 q 4.32,0.96 9.6,4.2 5.4,3.12 10.56,9.96 l 18.24,21.6 h -10.32 l 5.52,5.76 -16.2,26.16 q -2.88,3.72 -5.16,6.36 -2.28,2.64 -4.44,4.44 -2.04,1.8 -4.32,2.76 -2.16,0.96 -5.04,1.32 v 2.88 h 31.44 v -2.88 q -2.04,0 -4.32,-0.24 -2.16,-0.24 -3.96,-0.72 -1.8,-0.6 -3,-1.44 -1.08,-0.84 -1.08,-2.16 0,-1.68 1.92,-5.04 1.92,-3.36 5.76,-7.92 l 11.52,-18.12 21.12,23.04 q 2.88,3.96 3.72,5.76 0.96,1.68 0.96,2.88 0,2.16 -1.68,3.24 -1.56,0.96 -5.88,0.84 v 2.76 h 37.08 v -2.76 q -3,-0.12 -7.2,-3 -4.08,-3 -7.92,-8.28 l -29.76,-35.52 6.6,-0.24 -21.24,-24.96 q -2.16,-2.76 -3.12,-4.44 -0.84,-1.68 -0.84,-2.76 0,-2.04 1.8,-3.12 1.8,-1.08 6,-0.96 v -2.52 h -56.88 z m 83.52,35.04 q 4.68,-5.88 8.4,-12.12 3.72,-6.24 7.08,-11.4 3.36,-5.16 6.6,-8.4 3.24,-3.36 6.84,-3.6 l 0.12,-2.88 h -26.76 l -0.12,2.64 q 5.16,-0.12 7.56,0.84 2.52,0.96 3.12,2.64 0.72,1.56 0,3.72 -0.72,2.04 -2.16,4.32 -1.32,2.28 -2.88,4.56 -1.44,2.16 -2.28,3.96 l -10.2,15.72 z"
         id="path849" />
    </g>
    <g
       aria-label="REVISITED"
       transform="matrix(0.26458333,0,0,0.26458333,163.7216,-151.95482)"
       id="text1880-3"
       style="font-size:64px;line-height:1.25;font-family:Miltown;-inkscape-font-specification:Miltown;letter-spacing:6px;word-spacing:0px;white-space:pre;shape-inside:url(#rect1882-69);fill:#00e400">
      <path
         d="m 172.82825,396.47002 h 16.576 v 12.096 h 10.496 v -1.344 q -2.24,0 -3.648,-0.128 -1.344,-0.128 -2.176,-0.704 -0.832,-0.576 -1.152,-1.728 -0.256,-1.152 -0.256,-3.2 v -12.096 h 4.224 l 16.192,19.2 h 17.536 v -1.536 h -5.44 q -2.688,-0.192 -4.288,-0.832 -1.6,-0.704 -2.88,-2.24 l -12.864,-15.68 q 0.832,-0.192 1.856,-0.32 1.088,-0.128 2.112,-0.32 1.088,-0.192 1.984,-0.448 0.96,-0.32 1.6,-0.768 v -17.664 q -0.576,-0.32 -1.024,-0.64 -0.448,-0.384 -0.96,-0.576 -0.448,-0.256 -1.088,-0.384 -0.576,-0.192 -1.6,-0.128 h -18.624 v 27.968 h -16.512 z m 19.84,-10.432 v -15.872 q 0.448,-0.192 1.28,-0.32 0.832,-0.192 1.792,-0.256 1.024,-0.128 2.048,-0.192 1.024,-0.064 1.856,-0.064 4.544,0 7.168,2.048 2.624,1.984 2.624,5.824 0,1.792 -0.64,3.392 -0.576,1.6 -1.856,2.816 -1.216,1.216 -3.072,1.92 -1.856,0.704 -4.352,0.704 z"
         id="path852" />
      <path
         d="m 229.7082,408.63002 h 25.536 v -0.896 h 8.704 v 2.304 h 16.704 v -3.328 h 19.968 v -1.472 h -19.968 v -0.064 h -19.2 q -1.216,0 -1.92,-0.128 -0.704,-0.192 -1.088,-0.64 -0.384,-0.448 -0.512,-1.216 -0.128,-0.832 -0.128,-2.176 v -11.648 h 8.512 v 1.856 h 10.048 v -7.04 h -1.408 q 0,1.728 -0.32,2.56 -0.32,0.768 -1.024,1.088 -0.704,0.256 -1.792,0.192 -1.024,-0.064 -2.56,-0.064 l -1.472,-0.064 v -1.984 h -9.984 v -17.984 h 8.96 v 2.048 h 4.288 q 1.408,0 2.56,0.256 1.152,0.256 2.112,0.96 0.96,0.704 1.728,1.984 0.832,1.28 1.536,3.328 h 1.344 v -9.984 h -7.872 v -3.2 h -42.304 v 1.472 h 13.696 v 0.064 q 1.92,0 3.2,0.448 1.28,0.448 1.984,1.408 0.768,0.896 1.024,2.368 0.32,1.472 0.32,3.584 v 27.84 q 0,2.048 -0.32,3.392 -0.256,1.28 -1.024,2.048 -0.768,0.704 -2.048,0.96 -1.216,0.256 -3.136,0.256 h -14.144 z"
         id="path854" />
      <path
         d="m 361.53218,368.50202 v -1.536 h -16.128 v -1.472 h -9.216 v 2.048 q 2.24,0 3.2,0.704 1.024,0.704 1.024,2.368 0,0.768 -0.32,1.92 -0.32,1.088 -1.152,3.136 l -3.52,9.408 h 2.048 l -1.92,4.288 h -2.176 l -3.2,7.872 -10.24,-20.672 h -2.624 l -2.944,-6.4 h 2.432 l -3.776,-7.616 h -8.832 v 1.408 q 0.832,0 1.408,0.192 0.64,0.128 1.216,0.64 0.576,0.512 1.152,1.408 0.576,0.896 1.408,2.368 l 1.664,3.008 h -3.392 v 2.048 q 1.088,0 1.856,0.256 0.768,0.256 1.472,0.96 0.704,0.704 1.472,1.984 0.768,1.28 1.792,3.392 l 7.168,14.784 h -24.96 v 1.536 h 25.664 l 6.464,13.248 6.976,-17.088 1.152,-0.064 8.064,-17.856 q 0.832,-1.856 1.408,-3.008 0.576,-1.152 1.088,-1.792 0.576,-0.704 1.152,-1.024 0.576,-0.32 1.344,-0.448 z"
         id="path856" />
      <path
         d="m 389.86812,408.56602 v -1.472 h -1.344 q -1.792,0 -3.392,-0.128 -1.536,-0.128 -2.752,-0.64 -1.152,-0.576 -1.856,-1.664 -0.704,-1.152 -0.704,-3.072 v -29.632 q 0,-1.92 0.256,-3.2 0.32,-1.28 1.024,-2.048 0.704,-0.768 1.856,-1.088 1.152,-0.32 2.944,-0.32 h 0.768 v -1.024 h 9.216 v -1.536 h -16.256 v 1.216 h -15.552 v 1.28 h 1.664 q 1.856,0 3.008,0.32 1.216,0.32 1.92,1.088 0.704,0.704 0.96,1.984 0.256,1.28 0.256,3.2 v 28.608 q 0,1.536 -0.32,2.56 -0.32,1.024 -0.96,1.664 -0.576,0.576 -1.472,0.896 -0.896,0.32 -2.112,0.512 v 0.96 h -9.472 v 1.536 z"
         id="path858" />
      <path
         d="m 462.684,371.51002 v -1.536 h -19.392 v -7.488 h -2.112 q -0.64,2.176 -2.368,2.176 -0.96,0 -1.92,-0.32 -0.96,-0.384 -2.176,-0.768 -1.216,-0.384 -2.752,-0.704 -1.536,-0.384 -3.712,-0.384 -1.856,0 -3.2,0 -1.344,-0.064 -2.432,0.128 h -31.36 v 1.536 h 28.48 q -0.192,0.192 -0.384,0.448 -0.128,0.192 -0.32,0.448 v 19.264 q 1.728,1.472 4.288,2.88 2.56,1.408 5.184,2.752 2.624,1.344 4.864,2.624 2.24,1.28 3.392,2.368 1.472,1.472 1.856,2.752 0.448,1.28 0.448,2.432 0,1.6 -0.832,3.072 -0.448,0.256 -1.536,0.448 -1.088,0.192 -2.368,0.32 -1.216,0.128 -2.432,0.192 -1.152,0.064 -1.728,0.064 -2.24,0 -4.416,-0.896 -2.112,-0.96 -4.032,-2.624 -1.856,-1.664 -3.456,-3.904 -1.536,-2.304 -2.56,-4.992 h -2.048 l -0.064,2.944 -21.44,0.064 v 1.6 h 19.2 v 15.232 h 2.048 q 0,-0.32 0.192,-0.64 v -2.496 h 25.664 q 1.216,-1.152 2.368,-2.368 1.152,-1.216 1.92,-2.56 0.832,-1.344 1.28,-2.944 0.448,-1.6 0.32,-3.52 0,-2.432 -0.896,-4.736 -0.832,-2.304 -3.072,-4.544 -1.728,-1.728 -4.48,-3.328 -2.688,-1.6 -5.504,-3.008 -2.816,-1.472 -5.248,-2.688 -2.368,-1.28 -3.392,-2.368 -0.512,-0.512 -0.768,-1.28 -0.192,-0.768 -0.256,-1.536 -0.064,-0.832 0,-1.6 0.064,-0.768 0.064,-1.28 0,-1.28 0.448,-2.176 1.536,-0.768 3.584,-0.768 2.048,0 3.968,0.768 1.984,0.768 3.712,2.24 1.792,1.408 3.2,3.456 1.472,1.984 2.496,4.48 h 2.048 l 0.064,-7.232 z"
         id="path860" />
      <path
         d="m 491.53194,408.56602 v -1.472 h -1.344 q -1.792,0 -3.392,-0.128 -1.536,-0.128 -2.752,-0.64 -1.152,-0.576 -1.856,-1.664 -0.704,-1.152 -0.704,-3.072 v -29.632 q 0,-1.92 0.256,-3.2 0.32,-1.28 1.024,-2.048 0.704,-0.768 1.856,-1.088 1.152,-0.32 2.944,-0.32 h 0.768 v -1.024 h 9.216 v -1.536 h -16.256 v 1.216 h -15.552 v 1.28 h 1.664 q 1.856,0 3.008,0.32 1.216,0.32 1.92,1.088 0.704,0.704 0.96,1.984 0.256,1.28 0.256,3.2 v 28.608 q 0,1.536 -0.32,2.56 -0.32,1.024 -0.96,1.664 -0.576,0.576 -1.472,0.896 -0.896,0.32 -2.112,0.512 v 0.96 h -9.472 v 1.536 z"
         id="path862" />
      <path
         d="m 497.14781,408.50202 h 19.968 q -0.704,1.088 -1.984,1.28 -1.28,0.256 -2.88,0.256 h -1.6 v 1.28 h 11.52 v -3.904 h 12.16 v -1.408 h -1.28 q -1.856,0 -3.072,-0.384 -1.152,-0.384 -1.856,-1.216 -0.704,-0.832 -0.96,-2.176 -0.256,-1.408 -0.256,-3.328 v -2.432 h 22.144 v -1.472 h -22.144 v -27.712 h 7.168 q 2.048,0 3.328,0.256 1.344,0.256 2.112,1.024 0.768,0.704 1.088,1.92 0.384,1.216 0.576,3.136 h 1.28 v -8.64 h -22.848 v 2.432 h -17.088 v 9.728 h 1.216 q 0.32,-2.112 0.576,-3.52 0.256,-1.472 0.896,-2.304 0.64,-0.896 1.792,-1.28 1.152,-0.384 3.264,-0.384 h 7.936 q 0,8.768 0,14.912 0,6.08 0,10.176 0,4.032 0,6.4 0,2.304 -0.064,3.584 0,1.216 -0.064,1.664 -0.064,0.448 -0.128,0.704 h -20.8 z"
         id="path864" />
      <path
         d="m 547.62776,408.63002 h 25.536 v -0.896 h 8.704 v 2.304 h 16.704 v -3.328 h 19.968 v -1.472 h -19.968 v -0.064 h -19.2 q -1.216,0 -1.92,-0.128 -0.704,-0.192 -1.088,-0.64 -0.384,-0.448 -0.512,-1.216 -0.128,-0.832 -0.128,-2.176 v -11.648 h 8.512 v 1.856 h 10.048 v -7.04 h -1.408 q 0,1.728 -0.32,2.56 -0.32,0.768 -1.024,1.088 -0.704,0.256 -1.792,0.192 -1.024,-0.064 -2.56,-0.064 l -1.472,-0.064 v -1.984 h -9.984 v -17.984 h 8.96 v 2.048 h 4.288 q 1.408,0 2.56,0.256 1.152,0.256 2.112,0.96 0.96,0.704 1.728,1.984 0.832,1.28 1.536,3.328 h 1.344 v -9.984 h -7.872 v -3.2 h -42.304 v 1.472 h 13.696 v 0.064 q 1.92,0 3.2,0.448 1.28,0.448 1.984,1.408 0.768,0.896 1.024,2.368 0.32,1.472 0.32,3.584 v 27.84 q 0,2.048 -0.32,3.392 -0.256,1.28 -1.024,2.048 -0.768,0.704 -2.048,0.96 -1.216,0.256 -3.136,0.256 h -14.144 z"
         id="path866" />
      <path
         d="m 697.88374,396.34202 v -1.536 h -15.936 v -4.16 h -4.224 l -0.064,-9.536 h 2.688 v -12.736 q -3.136,-2.688 -7.616,-4.288 -4.416,-1.664 -10.56,-1.792 v 3.2 h -21.056 v 2.112 l -23.104,0.064 v 1.536 l 19.584,0.064 q 1.792,0 2.944,0.32 1.216,0.256 1.92,1.024 0.704,0.768 0.96,2.048 0.32,1.28 0.32,3.2 v 9.792 h -2.624 v 14.72 q 0,1.92 -0.32,3.2 -0.256,1.28 -0.96,2.048 -0.704,0.768 -1.92,1.088 -1.152,0.32 -2.944,0.32 h -1.984 v 1.536 h 26.624 q 1.664,0 3.136,-0.064 1.536,-0.128 2.944,-0.384 5.312,-0.128 9.344,-1.664 4.032,-1.6 6.912,-4.096 v -6.016 z m -47.936,-26.624 q 3.776,-0.896 7.616,-0.896 4.224,0 7.616,1.28 3.392,1.28 5.76,3.712 2.432,2.368 3.712,5.76 1.28,3.392 1.28,7.616 0,3.584 -0.96,6.848 -0.96,3.264 -3.072,5.76 -2.112,2.496 -5.376,3.968 -3.264,1.472 -7.872,1.472 -1.152,0 -2.432,-0.064 -1.216,-0.128 -2.432,-0.256 -1.216,-0.192 -2.24,-0.384 -0.96,-0.192 -1.6,-0.448 z"
         id="path868" />
    </g>
  </g>
</svg>
